<svg width="306" height="242" viewBox="0 0 306 242" fill="none" xmlns="http://www.w3.org/2000/svg">
<g filter="url(#filter0_d_3_5)">
<path d="M124 20L152 54L179 20L193 1H252L272 20L300 57L284 124L227.5 178L163 232L85 178L19 124L5.62686 68L29 20L43 1H101L124 20Z" fill="#B60D0D"/>
<path d="M124 20L152 54L179 20L193 1H252L272 20L300 57L284 124L227.5 178L163 232L85 178L19 124L5.62686 68L29 20L43 1H101L124 20Z" stroke="#FF0000" stroke-width="2"/>
</g>
<defs>
<filter id="filter0_d_3_5" x="0.571045" y="0" width="304.511" height="241.256" filterUnits="userSpaceOnUse" color-interpolation-filters="sRGB">
<feFlood flood-opacity="0" result="BackgroundImageFix"/>
<feColorMatrix in="SourceAlpha" type="matrix" values="0 0 0 0 0 0 0 0 0 0 0 0 0 0 0 0 0 0 127 0" result="hardAlpha"/>
<feOffset dy="4"/>
<feGaussianBlur stdDeviation="2"/>
<feComposite in2="hardAlpha" operator="out"/>
<feColorMatrix type="matrix" values="0 0 0 0 0 0 0 0 0 0 0 0 0 0 0 0 0 0 0.25 0"/>
<feBlend mode="normal" in2="BackgroundImageFix" result="effect1_dropShadow_3_5"/>
<feBlend mode="normal" in="SourceGraphic" in2="effect1_dropShadow_3_5" result="shape"/>
</filter>
</defs>
</svg>
